Coordinates
version=1
nRows=13
nColumns=63
inDegrees=yes

Units are S.I. units (second, meters, Newtons, ...)
If the header above contains a line with 'inDegrees', this indicates whether rotational values are in degrees (yes) or radians (no).

endheader
time	pelvis_tilt	pelvis_list	pelvis_rotation	pelvis_tx	pelvis_ty	pelvis_tz	hip_flexion_r	hip_adduction_r	hip_rotation_r	knee_angle_r	knee_angle_r_beta	ankle_angle_r	subtalar_angle_r	mtp_angle_r	hip_flexion_l	hip_adduction_l	hip_rotation_l	knee_angle_l	knee_angle_l_beta	ankle_angle_l	subtalar_angle_l	mtp_angle_l	L5_S1_Flex_Ext	L5_S1_Lat_Bending	L5_S1_axial_rotation	L4_L5_Flex_Ext	L4_L5_Lat_Bending	L4_L5_axial_rotation	L3_L4_Flex_Ext	L3_L4_Lat_Bending	L3_L4_axial_rotation	L2_L3_Flex_Ext	L2_L3_Lat_Bending	L2_L3_axial_rotation	L1_L2_Flex_Ext	L1_L2_Lat_Bending	L1_L2_axial_rotation	L1_T12_Flex_Ext	L1_T12_Lat_Bending	L1_T12_axial_rotation	Abs_r3	Abs_r2	Abs_r1	Abs_t1	Abs_t2	neck_flexion	neck_bending	neck_rotation	arm_flex_r	arm_add_r	arm_rot_r	elbow_flex_r	pro_sup_r	wrist_flex_r	wrist_dev_r	arm_flex_l	arm_add_l	arm_rot_l	elbow_flex_l	pro_sup_l	wrist_flex_l	wrist_dev_l
2.933333	3.419896	-7.369964	93.331729	0.261515	0.711915	0.812152	1.578704	5.586474	8.119160	4.869426	0.084988	23.780403	-9.146021	0.000000	2.814381	-2.531523	2.706166	6.648152	0.116032	29.540282	-11.202433	0.000000	-0.467671	0.874432	0.572747	-0.868512	1.162994	0.608544	-0.768337	2.126093	0.608544	-0.534501	2.126093	0.501154	-0.434279	1.783141	0.465357	-0.267227	1.354495	0.429561	-3.340528	9.891746	3.185449	0.000000	0.000000	11.691739	-0.655357	2.376083	7.659371	-18.917485	50.210704	26.594465	80.919477	-2.741737	4.928677	12.319932	-10.338047	70.497607	27.303762	56.497896	-6.313345	-2.574879
2.950000	3.460193	-7.354856	93.024051	0.261875	0.711594	0.811201	1.496765	5.615902	8.355415	4.924417	0.085947	23.854747	-9.078336	0.000000	2.763299	-2.571646	2.055141	6.936521	0.121065	29.591831	-11.029393	0.000000	-0.465984	0.888220	0.567031	-0.865379	1.181333	0.602471	-0.765565	2.159619	0.602471	-0.532573	2.159619	0.496152	-0.432713	1.811259	0.460713	-0.266263	1.375853	0.425274	-3.328478	10.047724	3.153658	0.000000	0.000000	11.651809	-0.351849	2.738228	8.001120	-19.090799	51.560911	26.560188	81.024156	-2.899504	4.941507	12.025847	-10.378272	70.368086	27.278943	54.816294	-6.207365	-3.171994
2.966667	3.527467	-7.320887	92.752359	0.262184	0.711224	0.809958	1.363526	5.679392	8.652835	4.939732	0.086215	23.908574	-9.115073	0.000000	2.631288	-2.640535	1.502632	7.140121	0.124619	29.585299	-10.964784	0.000000	-0.461310	0.905700	0.561046	-0.856699	1.204580	0.596112	-0.757886	2.202118	0.596112	-0.527231	2.202118	0.490915	-0.428372	1.846902	0.455850	-0.263593	1.402929	0.420785	-3.295091	10.245454	3.120370	0.000000	0.000000	11.563603	-0.002193	3.033277	8.282208	-19.296724	52.897807	26.551745	81.252755	-3.100212	4.908954	11.634493	-10.374379	69.987959	27.217447	53.486360	-6.102849	-3.764019
2.983333	3.631935	-7.283091	92.523964	0.262392	0.710807	0.808449	1.194455	5.787235	9.087909	4.904706	0.085603	23.910111	-9.370716	0.000000	2.445199	-2.744990	1.062997	7.264680	0.126793	29.544384	-10.986877	0.000000	-0.451894	0.929828	0.546736	-0.839211	1.236672	0.580907	-0.742416	2.260785	0.580907	-0.516469	2.260785	0.478394	-0.419628	1.896106	0.444223	-0.258212	1.440304	0.410052	-3.227830	10.518404	3.040780	0.000000	0.000000	11.401266	0.355324	3.361959	8.498942	-19.541705	54.146592	26.583582	81.633070	-3.306171	4.882598	11.183754	-10.338154	69.679806	27.105198	52.039458	-6.071306	-4.487515
3.000000	3.773396	-7.249764	92.353880	0.262466	0.710333	0.806691	1.009537	5.932459	9.502483	4.840537	0.084483	23.917668	-9.630708	0.000000	2.223487	-2.881602	0.812297	7.312643	0.127630	29.465855	-11.146843	0.000000	-0.437790	0.960959	0.513452	-0.813020	1.278075	0.545543	-0.719245	2.336475	0.545543	-0.500350	2.336475	0.449271	-0.406532	1.959587	0.417180	-0.250153	1.488525	0.385089	-3.127089	10.870556	2.855667	0.000000	0.000000	11.187591	0.706696	3.783806	8.663737	-19.812437	55.298012	26.661185	82.118242	-3.499039	4.892464	10.554751	-10.245340	68.863772	27.004687	51.161548	-6.078819	-5.205906
3.016667	3.934704	-7.221533	92.238212	0.262422	0.709819	0.804727	0.822539	6.093785	9.756371	4.774098	0.083324	23.994768	-9.695062	0.000000	1.977954	-3.036319	0.637561	7.294633	0.127315	29.412037	-11.246982	0.000000	-0.420207	0.996751	0.464181	-0.780367	1.325679	0.493193	-0.690358	2.423500	0.493193	-0.480255	2.423500	0.406159	-0.390204	2.032575	0.377147	-0.240106	1.543967	0.348136	-3.001498	11.275447	2.581638	0.000000	0.000000	10.942538	1.008946	4.275307	8.781795	-20.108065	56.403850	26.775468	82.591878	-3.699131	4.920229	9.803418	-10.115100	67.753471	26.912267	50.718516	-6.145626	-5.963820
3.033333	4.123826	-7.217873	92.139477	0.262335	0.709253	0.802554	0.636667	6.291913	10.196551	4.674704	0.081589	23.992290	-10.029856	0.000000	1.720699	-3.207072	0.748749	7.194714	0.125571	29.302398	-11.660363	0.000000	-0.396677	1.037916	0.403671	-0.736669	1.380428	0.428901	-0.651701	2.523589	0.428901	-0.453363	2.523589	0.353213	-0.368355	2.116518	0.327983	-0.226661	1.607732	0.302754	-2.833427	11.741113	2.245100	0.000000	0.000000	10.654570	1.263639	4.893282	8.841687	-20.410731	57.354094	26.935820	83.096045	-3.841439	5.011928	8.958658	-9.975857	66.524291	26.826863	50.400471	-6.247644	-6.734690
3.050000	4.302942	-7.240640	92.099469	0.262197	0.708643	0.800293	0.481692	6.474203	10.404529	4.592536	0.080155	24.061900	-10.108221	0.000000	1.491334	-3.367493	0.910846	7.059969	0.123220	29.248140	-11.990564	0.000000	-0.369924	1.077985	0.330379	-0.686987	1.433719	0.351028	-0.607749	2.621012	0.351028	-0.422787	2.621012	0.289082	-0.343512	2.198226	0.268433	-0.211375	1.669798	0.247785	-2.642333	12.194376	1.837472	0.000000	0.000000	10.396769	1.431952	5.510073	8.837242	-20.701818	58.088363	27.150659	83.620927	-3.954103	5.176276	8.030968	-9.829325	64.940297	26.768570	50.766773	-6.368234	-7.456456
3.066667	4.450608	-7.288087	92.104801	0.262072	0.708006	0.798029	0.364624	6.620657	10.366547	4.541231	0.079259	24.204195	-9.910976	0.000000	1.297331	-3.499529	1.071701	6.898622	0.120404	29.262260	-12.202806	0.000000	-0.342590	1.113007	0.250259	-0.636224	1.480299	0.265900	-0.562841	2.706165	0.265900	-0.391546	2.706165	0.218977	-0.318129	2.269643	0.203336	-0.195756	1.724048	0.187694	-2.447086	12.590555	1.391866	0.000000	0.000000	10.203388	1.500194	6.057087	8.792804	-20.966740	58.644702	27.404122	84.147696	-4.066801	5.373597	7.083413	-9.707413	63.118912	26.733042	51.813398	-6.511393	-8.121198
3.083333	4.555059	-7.379903	92.147767	0.262008	0.707317	0.795858	0.319725	6.722927	10.152889	4.539906	0.079236	24.399028	-9.548452	0.000000	1.182640	-3.593839	1.205501	6.746969	0.117757	29.361832	-12.289925	0.000000	-0.313619	1.139935	0.169115	-0.582423	1.516113	0.179684	-0.515245	2.771637	0.179684	-0.358436	2.771637	0.147975	-0.291227	2.324554	0.137406	-0.179202	1.765759	0.126836	-2.240152	12.895167	0.940564	0.000000	0.000000	10.106428	1.485212	6.469457	8.707125	-21.190999	59.007953	27.677084	84.635859	-4.180481	5.540874	6.142786	-9.633865	61.069123	26.751721	53.451853	-6.672355	-8.674383
3.100000	4.607927	-7.483348	92.227516	0.262016	0.706617	0.793782	0.294370	6.777174	9.835838	4.548883	0.079393	24.604693	-9.123455	0.000000	1.102113	-3.644707	1.314456	6.580205	0.114846	29.546475	-12.251309	0.000000	-0.287906	1.158292	0.084189	-0.534670	1.540529	0.089451	-0.473001	2.816271	0.089451	-0.329048	2.816271	0.073666	-0.267350	2.361989	0.068404	-0.164510	1.794194	0.063142	-2.056485	13.102832	0.468237	0.000000	0.000000	10.051351	1.363636	6.778109	8.628771	-21.378879	59.323939	27.962499	85.058662	-4.318567	5.695669	5.266093	-9.645048	59.006775	26.828740	55.451687	-6.823263	-9.151982
3.116667	4.617698	-7.603603	92.325297	0.262090	0.705922	0.791928	0.310145	6.787524	9.380015	4.580189	0.079939	24.833186	-8.567101	0.000000	1.069150	-3.658727	1.386295	6.403701	0.111766	29.808989	-12.101534	0.000000	-0.268544	1.169215	-0.000193	-0.498713	1.555057	-0.000205	-0.441191	2.842831	-0.000205	-0.306919	2.842831	-0.000169	-0.249370	2.384264	-0.000157	-0.153446	1.811115	-0.000145	-1.918184	13.226399	-0.001074	0.000000	0.000000	10.093472	1.196238	6.986919	8.577925	-21.522523	59.598986	28.227225	85.446082	-4.504702	5.808365	4.483832	-9.712804	56.920756	26.931928	57.654142	-6.961204	-9.549343
3.133333	4.600519	-7.752034	92.436820	0.262195	0.705208	0.790333	0.383778	6.768790	8.840826	4.634923	0.080895	25.066466	-7.951288	0.000000	1.110612	-3.646622	1.486101	6.249300	0.109071	30.139178	-11.938712	0.000000	-0.254194	1.175717	-0.085998	-0.472064	1.563704	-0.091373	-0.417616	2.858639	-0.091373	-0.290518	2.858639	-0.075248	-0.236045	2.397522	-0.069873	-0.145247	1.821186	-0.064499	-1.815683	13.299948	-0.478295	0.000000	0.000000	10.210880	0.994217	7.136001	8.538695	-21.635124	59.785812	28.476189	85.737442	-4.676070	5.857457	3.761928	-9.831418	54.756421	27.098535	59.978985	-7.105395	-9.863796
